<svg width="49" height="49" viewBox="0 0 49 49" fill="none" xmlns="http://www.w3.org/2000/svg">
<rect width="49" height="49" rx="5" fill="#FF6801"/>
<path opacity="0.4" d="M30.8877 23.8967C32.2827 23.7007 33.3567 22.5047 33.3597 21.0557C33.3597 19.6277 32.3187 18.4437 30.9537 18.2197" stroke="white" stroke-width="1.5" stroke-linecap="round" stroke-linejoin="round"/>
<path d="M32.7285 27.2505C34.0795 27.4525 35.0225 27.9255 35.0225 28.9005C35.0225 29.5715 34.5785 30.0075 33.8605 30.2815" stroke="white" stroke-width="1.5" stroke-linecap="round" stroke-linejoin="round"/>
<path fill-rule="evenodd" clip-rule="evenodd" d="M24.8867 27.6638C21.6727 27.6638 18.9277 28.1508 18.9277 30.0958C18.9277 32.0398 21.6557 32.5408 24.8867 32.5408C28.1007 32.5408 30.8447 32.0588 30.8447 30.1128C30.8447 28.1668 28.1177 27.6638 24.8867 27.6638Z" stroke="white" stroke-width="1.5" stroke-linecap="round" stroke-linejoin="round"/>
<path opacity="0.4" fill-rule="evenodd" clip-rule="evenodd" d="M24.8867 24.888C26.9957 24.888 28.7057 23.179 28.7057 21.069C28.7057 18.96 26.9957 17.25 24.8867 17.25C22.7777 17.25 21.0677 18.96 21.0677 21.069C21.0597 23.171 22.7567 24.881 24.8587 24.888H24.8867Z" stroke="white" stroke-width="1.5" stroke-linecap="round" stroke-linejoin="round"/>
<path opacity="0.4" d="M18.8847 23.8967C17.4887 23.7007 16.4157 22.5047 16.4127 21.0557C16.4127 19.6277 17.4537 18.4437 18.8187 18.2197" stroke="white" stroke-width="1.5" stroke-linecap="round" stroke-linejoin="round"/>
<path d="M17.0439 27.2505C15.6929 27.4525 14.7499 27.9255 14.7499 28.9005C14.7499 29.5715 15.1939 30.0075 15.9119 30.2815" stroke="white" stroke-width="1.5" stroke-linecap="round" stroke-linejoin="round"/>
</svg>
