<svg width="49" height="49" viewBox="0 0 49 49" fill="none" xmlns="http://www.w3.org/2000/svg">
<rect width="49" height="49" rx="5" fill="#FF6801"/>
<path fill-rule="evenodd" clip-rule="evenodd" d="M17.5652 16C16.7011 16 16 16.7129 16 17.5904V18.5264C16 19.1765 16.2472 19.8016 16.6894 20.2718L21.5351 25.4243L21.5372 25.4211C22.4727 26.3788 22.9991 27.6734 22.9991 29.0233V33.5952C22.9991 33.9007 23.3187 34.0957 23.584 33.9516L26.3436 32.4479C26.7602 32.2204 27.0201 31.7784 27.0201 31.2984V29.0114C27.0201 27.6691 27.539 26.3799 28.466 25.4243L33.3117 20.2718C33.7528 19.8016 34 19.1765 34 18.5264V17.5904C34 16.7129 33.3 16 32.4359 16H17.5652Z" stroke="white" stroke-width="1.5" stroke-linecap="round" stroke-linejoin="round"/>
<path opacity="0.4" d="M23 20H33.5" stroke="white" stroke-width="1.5" stroke-linecap="round" stroke-linejoin="round"/>
</svg>
