<svg width="49" height="49" viewBox="0 0 49 49" fill="none" xmlns="http://www.w3.org/2000/svg">
<rect width="49" height="49" rx="5" fill="#FF6801"/>
<path fill-rule="evenodd" clip-rule="evenodd" d="M29.2779 26.8894C29.9527 26.8894 30.519 27.4462 30.4158 28.1125C29.8106 32.0325 26.4548 34.9431 22.4074 34.9431C17.9295 34.9431 14.3 31.3136 14.3 26.8368C14.3 23.1483 17.1022 19.7125 20.2569 18.9357C20.9348 18.7683 21.6295 19.2452 21.6295 19.9431C21.6295 24.6715 21.7885 25.8947 22.6864 26.5599C23.5843 27.2252 24.64 26.8894 29.2779 26.8894Z" stroke="white" stroke-width="1.5" stroke-linecap="round" stroke-linejoin="round"/>
<path opacity="0.4" fill-rule="evenodd" clip-rule="evenodd" d="M33.6926 22.9517C33.7463 19.9138 30.0147 15.017 25.4674 15.1012C25.1137 15.1075 24.8305 15.4022 24.8147 15.7549C24.7 18.2527 24.8547 21.4896 24.9411 22.957C24.9674 23.4138 25.3263 23.7727 25.7821 23.7991C27.2905 23.8854 30.6453 24.0033 33.1074 23.6306C33.4421 23.5801 33.6874 23.2896 33.6926 22.9517Z" stroke="white" stroke-width="1.5" stroke-linecap="round" stroke-linejoin="round"/>
</svg>
