<svg width="49" height="49" viewBox="0 0 49 49" fill="none" xmlns="http://www.w3.org/2000/svg">
<rect width="49" height="49" rx="5" fill="#FF6801"/>
<path fill-rule="evenodd" clip-rule="evenodd" d="M14.0001 28.8619L14.0001 21.1463C14.0001 17.933 15.9516 16.0085 19.2098 15.9998L28.7904 15.9998C32.0487 15.9998 34.0001 17.9156 34.0001 21.1376L34.0001 23.9939C33.9592 24.3603 33.6453 24.6375 33.2716 24.6375C32.898 24.6375 32.5841 24.3603 32.5432 23.9939L32.5432 21.1463C32.5432 18.6906 31.2805 17.454 28.7904 17.454L19.2098 17.454C16.7198 17.454 15.4571 18.6906 15.4571 21.1463L15.4571 28.8619C15.4571 31.3176 16.7198 32.5629 19.2098 32.5629L28.7904 32.5629C31.2805 32.5629 32.5432 31.3176 32.5432 28.8619C32.5841 28.4956 32.898 28.2183 33.2716 28.2183C33.6453 28.2183 33.9592 28.4956 34.0001 28.8619C34.0001 32.0752 32.0487 33.9998 28.7904 33.9998L19.2098 33.9998C15.9427 33.9998 14.0001 32.0752 14.0001 28.8619ZM20.499 25.8662L20.499 28.6093C20.4581 28.9756 20.1442 29.2529 19.7705 29.2529C19.3969 29.2529 19.083 28.9756 19.0421 28.6093L19.0421 25.8662C19.083 25.4999 19.3969 25.2227 19.7705 25.2227C20.1442 25.2227 20.4581 25.4999 20.499 25.8662Z" fill="white"/>
</svg>
