<svg width="48" height="48" viewBox="0 0 48 48" fill="none" xmlns="http://www.w3.org/2000/svg">
<rect width="48" height="48" rx="5" fill="#FF6801"/>
<path fill-rule="evenodd" clip-rule="evenodd" d="M20.0584 19.3536C20.0584 17.1937 21.8264 15.4367 24 15.4367C26.1736 15.4367 27.9416 17.1937 27.9416 19.3536C27.9416 21.5126 26.1736 23.2695 24 23.2695C21.8264 23.2695 20.0584 21.5126 20.0584 19.3536ZM18.6123 19.3536C18.6123 22.3045 21.0294 24.7065 24 24.7065C26.9706 24.7065 29.3867 22.3045 29.3867 19.3536C29.3867 16.4017 26.9706 13.9998 24 13.9998C21.0294 13.9998 18.6123 16.4017 18.6123 19.3536ZM22.9776 33.9848C23.3127 33.9948 23.6538 33.9998 24 33.9998C27.4345 33.9998 32 33.6188 32 30.3298C32 26.6389 25.9784 26.6389 24 26.6389C20.5655 26.6389 16 27.0199 16 30.3098C16 31.2948 16.4609 32.6238 18.6566 33.3628C19.036 33.4928 19.4445 33.2878 19.5733 32.9128C19.7011 32.5378 19.4989 32.1308 19.1205 32.0038C17.6181 31.4978 17.445 30.7948 17.445 30.3098C17.445 28.8269 19.6508 28.0749 24 28.0749C28.3492 28.0749 30.555 28.8339 30.555 30.3298C30.555 31.8118 28.3492 32.5628 24 32.5628C23.6679 32.5628 23.3409 32.5588 23.0189 32.5498C22.6325 32.5528 22.2883 32.8508 22.2772 33.2468C22.2652 33.6438 22.5791 33.9748 22.9776 33.9848Z" fill="white"/>
</svg>
