<svg width="49" height="49" viewBox="0 0 49 49" fill="none" xmlns="http://www.w3.org/2000/svg">
<rect width="49" height="49" rx="5" fill="#FF6801"/>
<path fill-rule="evenodd" clip-rule="evenodd" d="M29.4522 14.7348V15.7697C32.4609 16.0616 34 17.7245 34 20.7142V28.9846C34 32.3104 32.1043 33.9999 28.3739 33.9999H21.6261C17.8957 33.9999 16 32.3104 16 28.9846V20.7142C16 18.7241 16.6783 17.3 18.0696 16.4685C18.2889 16.3188 18.5726 16.3084 18.802 16.4415C19.0314 16.5747 19.1669 16.8285 19.1517 17.0968C19.1365 17.365 18.9733 17.6013 18.7304 17.7069C17.8087 18.2553 17.3739 19.2105 17.3739 20.7142V20.9796H30.0609C30.4403 20.9796 30.7478 21.2925 30.7478 21.6784C30.7478 22.0643 30.4403 22.3772 30.0609 22.3772H17.3739V28.9846C17.3739 31.5232 18.6087 32.5758 21.6261 32.5935H28.3739C31.3478 32.5935 32.6174 31.5143 32.6174 28.9757V20.7054C32.6174 18.4941 31.6522 17.4238 29.4522 17.1673V17.8395C29.4014 18.1978 29.093 18.4594 28.7374 18.4458C28.3818 18.4321 28.0936 18.1476 28.0696 17.7865V14.6729C28.0763 14.4859 28.1565 14.3095 28.2921 14.1832C28.4278 14.0568 28.6076 13.9911 28.7913 14.0007C29.17 14.0244 29.4623 14.349 29.4522 14.7348ZM21.7088 18.2925C21.5781 18.4238 21.4011 18.4964 21.2174 18.4941C20.8414 18.4844 20.5429 18.169 20.5478 17.7864V14.7348C20.5874 14.3768 20.885 14.1062 21.2391 14.1062C21.5933 14.1062 21.8909 14.3768 21.9304 14.7348V15.699H25.8609C26.2403 15.699 26.5478 16.0118 26.5478 16.3977C26.5478 16.7837 26.2403 17.0965 25.8609 17.0965H21.913V17.7953C21.9131 17.9822 21.8395 18.1612 21.7088 18.2925ZM29.1913 24.615C28.7111 24.615 28.3217 25.011 28.3217 25.4995C28.3217 25.988 28.7111 26.384 29.1913 26.384C29.6716 26.384 30.0609 25.988 30.0609 25.4995C30.0609 25.2634 29.9681 25.037 29.8031 24.8709C29.6382 24.7047 29.4147 24.6126 29.1826 24.615H29.1913ZM24.1478 25.4995C24.1478 25.011 24.5371 24.615 25.0174 24.615C25.4976 24.615 25.887 25.011 25.887 25.4995C25.887 25.988 25.4976 26.384 25.0174 26.384C24.5371 26.384 24.1478 25.988 24.1478 25.4995ZM20.8522 24.615C20.3719 24.615 19.9826 25.011 19.9826 25.4995C19.9826 25.988 20.3719 26.384 20.8522 26.384C21.3324 26.384 21.7217 25.988 21.7217 25.4995C21.7218 25.2634 21.6289 25.037 21.464 24.8709C21.299 24.7047 21.0756 24.6126 20.8435 24.615H20.8522ZM28.3217 29.0818C28.3217 28.5933 28.7111 28.1973 29.1913 28.1973H29.1826C29.4147 28.1949 29.6382 28.2871 29.8031 28.4532C29.9681 28.6193 30.0609 28.8457 30.0609 29.0818C30.0609 29.5703 29.6716 29.9663 29.1913 29.9663C28.7111 29.9663 28.3217 29.5703 28.3217 29.0818ZM25.0174 28.1973C24.5371 28.1973 24.1478 28.5933 24.1478 29.0818C24.1478 29.5703 24.5371 29.9663 25.0174 29.9663C25.4976 29.9663 25.887 29.5703 25.887 29.0818C25.887 28.5933 25.4976 28.1973 25.0174 28.1973ZM19.9826 29.0818C19.9826 28.5933 20.3719 28.1973 20.8522 28.1973H20.8435C21.0756 28.1949 21.299 28.2871 21.464 28.4532C21.6289 28.6193 21.7218 28.8457 21.7217 29.0818C21.7217 29.5703 21.3324 29.9663 20.8522 29.9663C20.3719 29.9663 19.9826 29.5703 19.9826 29.0818Z" fill="white"/>
</svg>
