<svg width="49" height="49" viewBox="0 0 49 49" fill="none" xmlns="http://www.w3.org/2000/svg">
<rect width="49" height="49" rx="5" fill="#FF6801"/>
<path fill-rule="evenodd" clip-rule="evenodd" d="M16.3467 20.7622C16.3467 21.174 16.0047 21.5094 15.5847 21.5094C15.1647 21.5094 14.8237 21.174 14.8237 20.7622V18.9029C14.8237 16.7534 16.6067 15.0031 18.7977 15.0011L20.4267 15.0001H20.4277C20.8477 15.0001 21.1887 15.3345 21.1887 15.7473C21.1887 16.1592 20.8487 16.4936 20.4277 16.4936L18.7997 16.4946C17.4467 16.4965 16.3467 17.5762 16.3467 18.9029V20.7622ZM27.6008 16.4933H29.1938C30.5508 16.4933 31.6548 17.5759 31.6548 18.9066V20.7628C31.6548 21.1737 31.9958 21.5091 32.4158 21.5091C32.8358 21.5091 33.1768 21.1737 33.1768 20.7628V18.9066C33.1768 16.7522 31.3908 15.0008 29.1938 15.0008H27.6008C27.1808 15.0008 26.8398 15.3342 26.8398 15.747C26.8398 16.1589 27.1808 16.4933 27.6008 16.4933ZM34.239 24.0413H13.761C13.342 24.0413 13 24.3757 13 24.7885C13 25.2004 13.342 25.5348 13.761 25.5348H14.823V29.0963C14.823 31.2468 16.607 32.9972 18.799 32.9991L20.427 33.0001C20.848 33.0001 21.188 32.6657 21.189 32.2529C21.189 31.841 20.848 31.5067 20.428 31.5067L18.8 31.5057C17.447 31.5037 16.346 30.4241 16.346 29.0963V25.5348H31.655V29.0934C31.655 30.4251 30.551 31.5067 29.194 31.5067H27.601C27.181 31.5067 26.84 31.841 26.84 32.2529C26.84 32.6657 27.181 33.0001 27.601 33.0001H29.194C31.39 33.0001 33.177 31.2488 33.177 29.0934V25.5348H34.239C34.659 25.5348 35 25.2004 35 24.7885C35 24.3757 34.659 24.0413 34.239 24.0413ZM22.1418 21.5094H25.8588C26.2798 21.5094 26.6208 21.174 26.6208 20.7622C26.6208 20.3503 26.2798 20.0159 25.8588 20.0159H22.1418C21.7218 20.0159 21.3808 20.3503 21.3808 20.7622C21.3808 21.174 21.7218 21.5094 22.1418 21.5094ZM22.1421 27.7741H25.8591C26.2791 27.7741 26.6201 28.1085 26.6201 28.5203C26.6201 28.9332 26.2791 29.2666 25.8591 29.2666H22.1421C21.7211 29.2666 21.3801 28.9332 21.3801 28.5203C21.3801 28.1085 21.7211 27.7741 22.1421 27.7741Z" fill="white"/>
</svg>
